<svg xmlns="http://www.w3.org/2000/svg" viewBox="0 0 256 256" role="img" aria-labelledby="title desc">
  <title>闪图 Fdesign 标识</title>
  <desc>一个用于闪图 Fdesign 的闪电形产品图标</desc>
  <defs>
    <linearGradient id="fdesign-shell" x1="28" y1="20" x2="220" y2="230" gradientUnits="userSpaceOnUse">
      <stop offset="0" stop-color="#35D6FF"/>
      <stop offset="0.48" stop-color="#2DD4BF"/>
      <stop offset="1" stop-color="#8B5CF6"/>
    </linearGradient>
    <linearGradient id="fdesign-bolt" x1="100" y1="26" x2="154" y2="218" gradientUnits="userSpaceOnUse">
      <stop offset="0" stop-color="#FFF7A8"/>
      <stop offset="0.42" stop-color="#FACC15"/>
      <stop offset="1" stop-color="#FB923C"/>
    </linearGradient>
    <filter id="fdesign-glow" x="-20%" y="-20%" width="140%" height="140%">
      <feDropShadow dx="0" dy="12" stdDeviation="14" flood-color="#22D3EE" flood-opacity="0.28"/>
      <feDropShadow dx="0" dy="4" stdDeviation="6" flood-color="#0F172A" flood-opacity="0.45"/>
    </filter>
  </defs>
  <rect width="256" height="256" rx="62" fill="#07111F"/>
  <path
    fill="url(#fdesign-shell)"
    filter="url(#fdesign-glow)"
    d="M222.4 42.9 137.8 228.3c-4.1 9-17 9.2-21.4.3L31.7 43.5c-3.6-7.9 3.1-16.5 11.6-14.8l82 16.1c1.8.4 3.6.4 5.4 0l80.2-16.2c8.5-1.7 15.1 6.5 11.5 14.3Z"
  />
  <path
    fill="url(#fdesign-bolt)"
    d="M158.1 21.6 87.4 101.9c-3.8 4.3-.2 10.9 5.4 9.8l33.7-6.4-30.4 74.6c-2.5 6.1 5.2 10.8 9.4 5.7l70.7-85.5c3.6-4.4-.2-10.8-5.8-9.6l-33.5 7.2 31-70.6c2.6-5.8-5.6-10.3-9.8-5.5Z"
  />
  <path
    fill="none"
    stroke="#ECFEFF"
    stroke-opacity="0.62"
    stroke-width="7"
    stroke-linecap="round"
    d="M76 55.5 125.5 65c2.2.4 4.4.4 6.6-.1l46.8-9.4"
  />
</svg>
