<svg xmlns="http://www.w3.org/2000/svg" width="1200" height="800" viewBox="0 0 1200 800" role="img" aria-labelledby="title desc">
  <title id="title">FDX1002 C30 front demo eyewear</title>
  <desc id="desc">Synthetic front view sunglass asset for Fdesign demo data.</desc>
  <rect width="1200" height="800" fill="#f0fdf4"/>
  <path d="M240 390 C276 318 386 286 498 330 C534 344 556 374 566 408 C577 448 548 498 492 520 C406 553 294 532 250 474 C230 448 226 418 240 390 Z" fill="#bbf7d0" stroke="#14532d" stroke-width="18"/>
  <path d="M634 408 C644 374 666 344 702 330 C814 286 924 318 960 390 C974 418 970 448 950 474 C906 532 794 553 708 520 C652 498 623 448 634 408 Z" fill="#bbf7d0" stroke="#14532d" stroke-width="18"/>
  <path d="M566 406 C588 388 612 388 634 406" fill="none" stroke="#14532d" stroke-width="18" stroke-linecap="round"/>
  <path d="M240 392 C168 372 128 366 86 383" fill="none" stroke="#15803d" stroke-width="14" stroke-linecap="round"/>
  <path d="M960 392 C1032 372 1072 366 1114 383" fill="none" stroke="#15803d" stroke-width="14" stroke-linecap="round"/>
  <text x="600" y="690" text-anchor="middle" font-family="Arial, sans-serif" font-size="38" fill="#052e16">FDX1002-C30 front</text>
</svg>
